{"asset":{"generator":"STP2GLTF","version":"2.0"},"scene":0,"scenes":[{"nodes":[0]}],"nodes":[{"children":[1]},{"mesh":0}],"meshes":[{"primitives":[{"mode":4,"material":0,"indices":0,"attributes":{"POSITION":1}},{"mode":4,"material":1,"indices":2,"attributes":{"POSITION":3}}],"name":"Mesh"}],"accessors":[{"bufferView":0,"byteOffset":0,"componentType":5123,"count":276,"type":"SCALAR","max":[105],"min":[0]},{"bufferView":1,"byteOffset":0,"componentType":5126,"count":106,"type":"VEC3","max":[0.000010,300.000000,145.400009],"min":[-500.000000,-0.000010,-0.000010]},{"bufferView":0,"byteOffset":552,"componentType":5123,"count":720,"type":"SCALAR","max":[301],"min":[0]},{"bufferView":1,"byteOffset":1272,"componentType":5126,"count":302,"type":"VEC3","max":[0.000010,300.000000,145.400009],"min":[-500.000000,-0.000010,-0.000010]}],"materials":[{"name":"Mt0","pbrMetallicRoughness":{"metallicFactor":0.000000,"baseColorFactor":[0.745098,0.737255,0.729412,1.000000]}},{"name":"Mt1","pbrMetallicRoughness":{"metallicFactor":0.000000,"baseColorFactor":[0.500000,0.500000,0.500000,1.000000]}}],"bufferViews":[{"buffer":0,"byteOffset":0,"byteLength":1992},{"buffer":0,"byteOffset":1992,"byteLength":4896,"byteStride":12}],"buffers":[{"byteLength":6888,"uri":"test_14.bin"}]}