{"asset":{"generator":"STP2GLTF","version":"2.0"},"scene":0,"scenes":[{"nodes":[0]}],"nodes":[{"children":[1]},{"mesh":0}],"meshes":[{"primitives":[{"mode":4,"material":0,"indices":0,"attributes":{"POSITION":1}}],"name":"Mesh"}],"accessors":[{"bufferView":0,"byteOffset":0,"componentType":5123,"count":9624,"type":"SCALAR","max":[3815],"min":[0]},{"bufferView":1,"byteOffset":0,"componentType":5126,"count":3816,"type":"VEC3","max":[5.285706,14.212659,4.500010],"min":[-5.285706,-0.400010,-4.500010]}],"materials":[{"name":"Mt0","pbrMetallicRoughness":{"metallicFactor":0.000000,"baseColorFactor":[0.500000,0.500000,0.500000,1.000000]}}],"bufferViews":[{"buffer":0,"byteOffset":0,"byteLength":19248},{"buffer":0,"byteOffset":19248,"byteLength":45792,"byteStride":12}],"buffers":[{"byteLength":65040,"uri":"test_20.bin"}]}