{"asset":{"generator":"STP2GLTF","version":"2.0"},"scene":0,"scenes":[{"nodes":[0]}],"nodes":[{"children":[1]},{"mesh":0}],"meshes":[{"primitives":[{"mode":4,"material":0,"indices":0,"attributes":{"POSITION":1}}],"name":"Mesh"}],"accessors":[{"bufferView":0,"byteOffset":0,"componentType":5123,"count":179721,"type":"SCALAR","max":[60985],"min":[0]},{"bufferView":1,"byteOffset":0,"componentType":5126,"count":60986,"type":"VEC3","max":[3987.800049,2235.303467,1092.337158],"min":[-0.000010,-0.000010,-12.700009]}],"materials":[{"name":"Mt0","pbrMetallicRoughness":{"metallicFactor":0.000000,"baseColorFactor":[0.500000,0.500000,0.500000,1.000000]}}],"bufferViews":[{"buffer":0,"byteOffset":0,"byteLength":359442},{"buffer":0,"byteOffset":359442,"byteLength":731832,"byteStride":12}],"buffers":[{"byteLength":1091274,"uri":"test_22.bin"}]}