{"asset":{"generator":"STP2GLTF","version":"2.0"},"scene":0,"scenes":[{"nodes":[0]}],"nodes":[{"children":[1]},{"mesh":0}],"meshes":[{"primitives":[{"mode":4,"material":0,"indices":0,"attributes":{"POSITION":1}}],"name":"Mesh"}],"accessors":[{"bufferView":0,"byteOffset":0,"componentType":5123,"count":204,"type":"SCALAR","max":[95],"min":[0]},{"bufferView":1,"byteOffset":0,"componentType":5126,"count":96,"type":"VEC3","max":[-195.049988,546.349976,30.000010],"min":[-225.050018,-0.250010,-0.000010]}],"materials":[{"name":"Mt0","pbrMetallicRoughness":{"metallicFactor":0.000000,"baseColorFactor":[0.500000,0.500000,0.500000,1.000000]}}],"bufferViews":[{"buffer":0,"byteOffset":0,"byteLength":408},{"buffer":0,"byteOffset":408,"byteLength":1152,"byteStride":12}],"buffers":[{"byteLength":1560,"uri":"test_30.bin"}]}