{"asset":{"generator":"STP2GLTF","version":"2.0"},"scene":0,"scenes":[{"nodes":[0]}],"nodes":[{"children":[1]},{"mesh":0}],"meshes":[{"primitives":[{"mode":4,"material":0,"indices":0,"attributes":{"POSITION":1}},{"mode":4,"material":1,"indices":2,"attributes":{"POSITION":3}}],"name":"Mesh"}],"accessors":[{"bufferView":0,"byteOffset":0,"componentType":5123,"count":342,"type":"SCALAR","max":[131],"min":[0]},{"bufferView":1,"byteOffset":0,"componentType":5126,"count":132,"type":"VEC3","max":[406.000000,156.000015,0.000010],"min":[-406.000000,5.999990,-1830.000000]},{"bufferView":0,"byteOffset":684,"componentType":5123,"count":2418,"type":"SCALAR","max":[705],"min":[0]},{"bufferView":1,"byteOffset":1584,"componentType":5126,"count":706,"type":"VEC3","max":[412.000000,156.000015,0.000010],"min":[-412.000000,-0.000010,-1830.000000]}],"materials":[{"name":"Mt0","pbrMetallicRoughness":{"metallicFactor":0.000000,"baseColorFactor":[0.745098,0.737255,0.729412,1.000000]}},{"name":"Mt1","pbrMetallicRoughness":{"metallicFactor":0.000000,"baseColorFactor":[0.500000,0.500000,0.500000,1.000000]}}],"bufferViews":[{"buffer":0,"byteOffset":0,"byteLength":5520},{"buffer":0,"byteOffset":5520,"byteLength":10056,"byteStride":12}],"buffers":[{"byteLength":15576,"uri":"test_7.bin"}]}