{"asset":{"generator":"STP2GLTF","version":"2.0"},"scene":0,"scenes":[{"nodes":[0]}],"nodes":[{"children":[1]},{"mesh":0}],"meshes":[{"primitives":[{"mode":4,"material":0,"indices":0,"attributes":{"POSITION":1}}],"name":"Mesh"}],"accessors":[{"bufferView":0,"byteOffset":0,"componentType":5123,"count":4527,"type":"SCALAR","max":[1548],"min":[0]},{"bufferView":1,"byteOffset":0,"componentType":5126,"count":1549,"type":"VEC3","max":[35.763836,499.310822,57.291847],"min":[-129.842636,-6.239150,43.301472]}],"materials":[{"name":"Mt0","pbrMetallicRoughness":{"metallicFactor":0.000000,"baseColorFactor":[0.400000,0.400000,0.400000,1.000000]}}],"bufferViews":[{"buffer":0,"byteOffset":0,"byteLength":9054},{"buffer":0,"byteOffset":9054,"byteLength":18588,"byteStride":12}],"buffers":[{"byteLength":27642,"uri":"test_31.bin"}]}