{"asset":{"generator":"STP2GLTF","version":"2.0"},"scene":0,"scenes":[{"nodes":[0]}],"nodes":[{"children":[1]},{"mesh":0}],"meshes":[{"primitives":[{"mode":4,"material":0,"indices":0,"attributes":{"POSITION":1}}],"name":"Mesh"}],"accessors":[{"bufferView":0,"byteOffset":0,"componentType":5123,"count":5040,"type":"SCALAR","max":[2023],"min":[0]},{"bufferView":1,"byteOffset":0,"componentType":5126,"count":2024,"type":"VEC3","max":[-241.489532,1535.339233,38.500011],"min":[-2473.285400,26.263391,-348.500000]}],"materials":[{"name":"Mt0","pbrMetallicRoughness":{"metallicFactor":0.000000,"baseColorFactor":[0.500000,0.500000,0.500000,1.000000]}}],"bufferViews":[{"buffer":0,"byteOffset":0,"byteLength":10080},{"buffer":0,"byteOffset":10080,"byteLength":24288,"byteStride":12}],"buffers":[{"byteLength":34368,"uri":"test_27.bin"}]}