{"asset":{"generator":"STP2GLTF","version":"2.0"},"scene":0,"scenes":[{"nodes":[0]}],"nodes":[{"children":[1]},{"mesh":0}],"meshes":[{"primitives":[{"mode":4,"material":0,"indices":0,"attributes":{"POSITION":1}}],"name":"Mesh"}],"accessors":[{"bufferView":0,"byteOffset":0,"componentType":5123,"count":3360,"type":"SCALAR","max":[1267],"min":[0]},{"bufferView":1,"byteOffset":0,"componentType":5126,"count":1268,"type":"VEC3","max":[4537.167969,843.803101,4206.468750],"min":[4369.562012,696.324097,4175.453125]}],"materials":[{"name":"Mt0","pbrMetallicRoughness":{"metallicFactor":0.000000,"baseColorFactor":[0.500000,0.500000,0.500000,1.000000]}}],"bufferViews":[{"buffer":0,"byteOffset":0,"byteLength":6720},{"buffer":0,"byteOffset":6720,"byteLength":15216,"byteStride":12}],"buffers":[{"byteLength":21936,"uri":"test_2.bin"}]}