{"asset":{"generator":"STP2GLTF","version":"2.0"},"scene":0,"scenes":[{"nodes":[0]}],"nodes":[{"children":[1]},{"mesh":0}],"meshes":[{"primitives":[{"mode":4,"material":0,"indices":0,"attributes":{"POSITION":1}}],"name":"Mesh"}],"accessors":[{"bufferView":0,"byteOffset":0,"componentType":5123,"count":456,"type":"SCALAR","max":[187],"min":[0]},{"bufferView":1,"byteOffset":0,"componentType":5126,"count":188,"type":"VEC3","max":[79.569717,-14.999990,60.000011],"min":[39.999989,-23.000010,-0.000010]}],"materials":[{"name":"Mt0","pbrMetallicRoughness":{"metallicFactor":0.000000,"baseColorFactor":[0.500000,0.500000,0.500000,1.000000]}}],"bufferViews":[{"buffer":0,"byteOffset":0,"byteLength":912},{"buffer":0,"byteOffset":912,"byteLength":2256,"byteStride":12}],"buffers":[{"byteLength":3168,"uri":"test_36.bin"}]}