{"asset":{"generator":"STP2GLTF","version":"2.0"},"scene":0,"scenes":[{"nodes":[0]}],"nodes":[{"children":[1]},{"mesh":0}],"meshes":[{"primitives":[{"mode":4,"material":0,"indices":0,"attributes":{"POSITION":1}}],"name":"Mesh"}],"accessors":[{"bufferView":0,"byteOffset":0,"componentType":5123,"count":22350,"type":"SCALAR","max":[5581],"min":[0]},{"bufferView":1,"byteOffset":0,"componentType":5126,"count":5582,"type":"VEC3","max":[50.000011,5.000010,50.000011],"min":[-50.000011,-1.000010,-50.000011]}],"materials":[{"name":"Mt0","pbrMetallicRoughness":{"metallicFactor":0.000000,"baseColorFactor":[0.500000,0.500000,0.500000,1.000000]}}],"bufferViews":[{"buffer":0,"byteOffset":0,"byteLength":44700},{"buffer":0,"byteOffset":44700,"byteLength":66984,"byteStride":12}],"buffers":[{"byteLength":111684,"uri":"test_26.bin"}]}