{"asset":{"generator":"STP2GLTF","version":"2.0"},"scene":0,"scenes":[{"nodes":[0]}],"nodes":[{"children":[1]},{"mesh":0}],"meshes":[{"primitives":[{"mode":4,"material":0,"indices":0,"attributes":{"POSITION":1}}],"name":"Mesh"}],"accessors":[{"bufferView":0,"byteOffset":0,"componentType":5123,"count":36,"type":"SCALAR","max":[23],"min":[0]},{"bufferView":1,"byteOffset":0,"componentType":5126,"count":24,"type":"VEC3","max":[1088.000000,1738.000000,5.000010],"min":[-1088.000000,-1722.000000,-0.000010]}],"materials":[{"name":"Mt0","pbrMetallicRoughness":{"metallicFactor":0.000000,"baseColorFactor":[0.500000,0.500000,0.500000,1.000000]}}],"bufferViews":[{"buffer":0,"byteOffset":0,"byteLength":72},{"buffer":0,"byteOffset":72,"byteLength":288,"byteStride":12}],"buffers":[{"byteLength":360,"uri":"test_11.bin"}]}