{"asset":{"generator":"STP2GLTF","version":"2.0"},"scene":0,"scenes":[{"nodes":[0]}],"nodes":[{"children":[1]},{"mesh":0}],"meshes":[{"primitives":[{"mode":4,"material":0,"indices":0,"attributes":{"POSITION":1}}],"name":"Mesh"}],"accessors":[{"bufferView":0,"byteOffset":0,"componentType":5123,"count":2772,"type":"SCALAR","max":[943],"min":[0]},{"bufferView":1,"byteOffset":0,"componentType":5126,"count":944,"type":"VEC3","max":[98.247673,59.711464,-4.749990],"min":[-98.267624,-59.725807,-5.750010]}],"materials":[{"name":"Mt0","pbrMetallicRoughness":{"metallicFactor":0.000000,"baseColorFactor":[0.500000,0.500000,0.500000,1.000000]}}],"bufferViews":[{"buffer":0,"byteOffset":0,"byteLength":5544},{"buffer":0,"byteOffset":5544,"byteLength":11328,"byteStride":12}],"buffers":[{"byteLength":16872,"uri":"test_34.bin"}]}