{"asset":{"generator":"STP2GLTF","version":"2.0"},"scene":0,"scenes":[{"nodes":[0]}],"nodes":[{"children":[1]},{"mesh":0}],"meshes":[{"primitives":[{"mode":4,"material":0,"indices":0,"attributes":{"POSITION":1}}],"name":"Mesh"}],"accessors":[{"bufferView":0,"byteOffset":0,"componentType":5123,"count":1308,"type":"SCALAR","max":[483],"min":[0]},{"bufferView":1,"byteOffset":0,"componentType":5126,"count":484,"type":"VEC3","max":[47.307510,184.150009,0.000010],"min":[-0.000010,-0.000010,-52.303692]}],"materials":[{"name":"Mt0","pbrMetallicRoughness":{"metallicFactor":0.000000,"baseColorFactor":[0.500000,0.500000,0.500000,1.000000]}}],"bufferViews":[{"buffer":0,"byteOffset":0,"byteLength":2616},{"buffer":0,"byteOffset":2616,"byteLength":5808,"byteStride":12}],"buffers":[{"byteLength":8424,"uri":"test_18.bin"}]}