{"asset":{"generator":"STP2GLTF","version":"2.0"},"scene":0,"scenes":[{"nodes":[0]}],"nodes":[{"children":[1]},{"mesh":0}],"meshes":[{"primitives":[{"mode":4,"material":0,"indices":0,"attributes":{"POSITION":1}}],"name":"Mesh"}],"accessors":[{"bufferView":0,"byteOffset":0,"componentType":5123,"count":3048,"type":"SCALAR","max":[2031],"min":[0]},{"bufferView":1,"byteOffset":0,"componentType":5126,"count":2032,"type":"VEC3","max":[382.600555,8.135735,401.849213],"min":[-421.109497,-492.606293,-401.849213]}],"materials":[{"name":"Mt0","pbrMetallicRoughness":{"metallicFactor":0.000000,"baseColorFactor":[0.500000,0.500000,0.500000,1.000000]}}],"bufferViews":[{"buffer":0,"byteOffset":0,"byteLength":6096},{"buffer":0,"byteOffset":6096,"byteLength":24384,"byteStride":12}],"buffers":[{"byteLength":30480,"uri":"test_28.bin"}]}