{"asset":{"generator":"STP2GLTF","version":"2.0"},"scene":0,"scenes":[{"nodes":[0]}],"nodes":[{"children":[1]},{"mesh":0}],"meshes":[{"primitives":[{"mode":4,"material":0,"indices":0,"attributes":{"POSITION":1}}],"name":"Mesh"}],"accessors":[{"bufferView":0,"byteOffset":0,"componentType":5123,"count":15240,"type":"SCALAR","max":[5335],"min":[0]},{"bufferView":1,"byteOffset":0,"componentType":5126,"count":5336,"type":"VEC3","max":[186.134232,151.188156,50.500011],"min":[-254.767822,-253.942902,-350.500000]}],"materials":[{"name":"Mt0","pbrMetallicRoughness":{"metallicFactor":0.000000,"baseColorFactor":[0.500000,0.500000,0.500000,1.000000]}}],"bufferViews":[{"buffer":0,"byteOffset":0,"byteLength":30480},{"buffer":0,"byteOffset":30480,"byteLength":64032,"byteStride":12}],"buffers":[{"byteLength":94512,"uri":"test_32.bin"}]}