{"asset":{"generator":"STP2GLTF","version":"2.0"},"scene":0,"scenes":[{"nodes":[0]}],"nodes":[{"children":[1]},{"mesh":0}],"meshes":[{"primitives":[{"mode":4,"material":0,"indices":0,"attributes":{"POSITION":1}}],"name":"Mesh"}],"accessors":[{"bufferView":0,"byteOffset":0,"componentType":5123,"count":37872,"type":"SCALAR","max":[6800],"min":[0]},{"bufferView":1,"byteOffset":0,"componentType":5126,"count":6801,"type":"VEC3","max":[99.994377,99.994377,100.000008],"min":[-100.000008,-100.000008,-0.000010]}],"materials":[{"name":"Mt0","pbrMetallicRoughness":{"metallicFactor":0.000000,"baseColorFactor":[0.500000,0.500000,0.500000,1.000000]}}],"bufferViews":[{"buffer":0,"byteOffset":0,"byteLength":75744},{"buffer":0,"byteOffset":75744,"byteLength":81612,"byteStride":12}],"buffers":[{"byteLength":157356,"uri":"test_25.bin"}]}