{"asset":{"generator":"STP2GLTF","version":"2.0"},"scene":0,"scenes":[{"nodes":[0]}],"nodes":[{"children":[1]},{"mesh":0}],"meshes":[{"primitives":[{"mode":4,"material":0,"indices":0,"attributes":{"POSITION":1}}],"name":"Mesh"}],"accessors":[{"bufferView":0,"byteOffset":0,"componentType":5123,"count":2436,"type":"SCALAR","max":[867],"min":[0]},{"bufferView":1,"byteOffset":0,"componentType":5126,"count":868,"type":"VEC3","max":[0.000010,228.600021,0.000010],"min":[-69.850006,-228.600021,-38.100010]}],"materials":[{"name":"Mt0","pbrMetallicRoughness":{"metallicFactor":0.000000,"baseColorFactor":[0.500000,0.500000,0.500000,1.000000]}}],"bufferViews":[{"buffer":0,"byteOffset":0,"byteLength":4872},{"buffer":0,"byteOffset":4872,"byteLength":10416,"byteStride":12}],"buffers":[{"byteLength":15288,"uri":"test_4.bin"}]}