{"asset":{"generator":"STP2GLTF","version":"2.0"},"scene":0,"scenes":[{"nodes":[0]}],"nodes":[{"children":[1]},{"mesh":0}],"meshes":[{"primitives":[{"mode":4,"material":0,"indices":0,"attributes":{"POSITION":1}}],"name":"Mesh"}],"accessors":[{"bufferView":0,"byteOffset":0,"componentType":5123,"count":2520,"type":"SCALAR","max":[965],"min":[0]},{"bufferView":1,"byteOffset":0,"componentType":5126,"count":966,"type":"VEC3","max":[101.600006,254.000015,3.175010],"min":[-222.250549,-0.000010,-52.303692]}],"materials":[{"name":"Mt0","pbrMetallicRoughness":{"metallicFactor":0.000000,"baseColorFactor":[0.500000,0.500000,0.500000,1.000000]}}],"bufferViews":[{"buffer":0,"byteOffset":0,"byteLength":5040},{"buffer":0,"byteOffset":5040,"byteLength":11592,"byteStride":12}],"buffers":[{"byteLength":16632,"uri":"test_17.bin"}]}