{"asset":{"generator":"STP2GLTF","version":"2.0"},"scene":0,"scenes":[{"nodes":[0]}],"nodes":[{"children":[1]},{"mesh":0}],"meshes":[{"primitives":[{"mode":4,"material":0,"indices":0,"attributes":{"POSITION":1}}],"name":"Mesh"}],"accessors":[{"bufferView":0,"byteOffset":0,"componentType":5123,"count":3588,"type":"SCALAR","max":[1239],"min":[0]},{"bufferView":1,"byteOffset":0,"componentType":5126,"count":1240,"type":"VEC3","max":[-49.787987,27.500010,20.000011],"min":[-50.788010,-20.000010,-84.500008]}],"materials":[{"name":"Mt0","pbrMetallicRoughness":{"metallicFactor":0.000000,"baseColorFactor":[0.500000,0.500000,0.500000,1.000000]}}],"bufferViews":[{"buffer":0,"byteOffset":0,"byteLength":7176},{"buffer":0,"byteOffset":7176,"byteLength":14880,"byteStride":12}],"buffers":[{"byteLength":22056,"uri":"test_13.bin"}]}