{"asset":{"generator":"STP2GLTF","version":"2.0"},"scene":0,"scenes":[{"nodes":[0]}],"nodes":[{"children":[1]},{"mesh":0}],"meshes":[{"primitives":[{"mode":4,"material":0,"indices":0,"attributes":{"POSITION":1}}],"name":"Mesh"}],"accessors":[{"bufferView":0,"byteOffset":0,"componentType":5123,"count":30036,"type":"SCALAR","max":[10027],"min":[0]},{"bufferView":1,"byteOffset":0,"componentType":5126,"count":10028,"type":"VEC3","max":[9.399753,19.089205,18.000010],"min":[-26.851456,-4.076252,-18.000010]}],"materials":[{"name":"Mt0","pbrMetallicRoughness":{"metallicFactor":0.000000,"baseColorFactor":[0.500000,0.500000,0.500000,1.000000]}}],"bufferViews":[{"buffer":0,"byteOffset":0,"byteLength":60072},{"buffer":0,"byteOffset":60072,"byteLength":120336,"byteStride":12}],"buffers":[{"byteLength":180408,"uri":"test_21.bin"}]}