{"asset":{"generator":"STP2GLTF","version":"2.0"},"scene":0,"scenes":[{"nodes":[0]}],"nodes":[{"children":[1]},{"mesh":0}],"meshes":[{"primitives":[{"mode":4,"material":0,"indices":0,"attributes":{"POSITION":1}}],"name":"Mesh"}],"accessors":[{"bufferView":0,"byteOffset":0,"componentType":5123,"count":100788,"type":"SCALAR","max":[21555],"min":[0]},{"bufferView":1,"byteOffset":0,"componentType":5126,"count":21556,"type":"VEC3","max":[57.484352,286.000000,29.506189],"min":[-57.499973,-286.000000,-30.493830]}],"materials":[{"name":"Mt0","pbrMetallicRoughness":{"metallicFactor":0.000000,"baseColorFactor":[0.500000,0.500000,0.500000,1.000000]}}],"bufferViews":[{"buffer":0,"byteOffset":0,"byteLength":201576},{"buffer":0,"byteOffset":201576,"byteLength":258672,"byteStride":12}],"buffers":[{"byteLength":460248,"uri":"test_23.bin"}]}