{"asset":{"generator":"STP2GLTF","version":"2.0"},"scene":0,"scenes":[{"nodes":[0]}],"nodes":[{"children":[1]},{"mesh":0}],"meshes":[{"primitives":[{"mode":4,"material":0,"indices":0,"attributes":{"POSITION":1}}],"name":"Mesh"}],"accessors":[{"bufferView":0,"byteOffset":0,"componentType":5123,"count":9144,"type":"SCALAR","max":[3459],"min":[0]},{"bufferView":1,"byteOffset":0,"componentType":5126,"count":3460,"type":"VEC3","max":[4396.740234,694.573242,4431.788086],"min":[4369.562012,-682.303589,4202.837402]}],"materials":[{"name":"Mt0","pbrMetallicRoughness":{"metallicFactor":0.000000,"baseColorFactor":[0.500000,0.500000,0.500000,1.000000]}}],"bufferViews":[{"buffer":0,"byteOffset":0,"byteLength":18288},{"buffer":0,"byteOffset":18288,"byteLength":41520,"byteStride":12}],"buffers":[{"byteLength":59808,"uri":"test_3.bin"}]}