{"asset":{"generator":"STP2GLTF","version":"2.0"},"scene":0,"scenes":[{"nodes":[0]}],"nodes":[{"children":[1]},{"mesh":0}],"meshes":[{"primitives":[{"mode":4,"material":0,"indices":0,"attributes":{"POSITION":1}}],"name":"Mesh"}],"accessors":[{"bufferView":0,"byteOffset":0,"componentType":5123,"count":12204,"type":"SCALAR","max":[3359],"min":[0]},{"bufferView":1,"byteOffset":0,"componentType":5126,"count":3360,"type":"VEC3","max":[82.550011,74.599808,63.500011],"min":[-82.550011,-1.600210,-63.500011]}],"materials":[{"name":"Mt0","pbrMetallicRoughness":{"metallicFactor":0.000000,"baseColorFactor":[0.500000,0.500000,0.500000,1.000000]}}],"bufferViews":[{"buffer":0,"byteOffset":0,"byteLength":24408},{"buffer":0,"byteOffset":24408,"byteLength":40320,"byteStride":12}],"buffers":[{"byteLength":64728,"uri":"test_5.bin"}]}