{"asset":{"generator":"STP2GLTF","version":"2.0"},"scene":0,"scenes":[{"nodes":[0]}],"nodes":[{"children":[1]},{"mesh":0}],"meshes":[{"primitives":[{"mode":4,"material":0,"indices":0,"attributes":{"POSITION":1}}],"name":"Mesh"}],"accessors":[{"bufferView":0,"byteOffset":0,"componentType":5123,"count":62316,"type":"SCALAR","max":[22110],"min":[0]},{"bufferView":1,"byteOffset":0,"componentType":5126,"count":22111,"type":"VEC3","max":[268.653259,148.598099,191.859558],"min":[-268.653259,-3.241997,-146.050018]}],"materials":[{"name":"Mt0","pbrMetallicRoughness":{"metallicFactor":0.000000,"baseColorFactor":[0.500000,0.500000,0.500000,1.000000]}}],"bufferViews":[{"buffer":0,"byteOffset":0,"byteLength":124632},{"buffer":0,"byteOffset":124632,"byteLength":265332,"byteStride":12}],"buffers":[{"byteLength":389964,"uri":"test_6.bin"}]}