{"asset":{"generator":"STP2GLTF","version":"2.0"},"scene":0,"scenes":[{"nodes":[0]}],"nodes":[{"children":[1]},{"mesh":0}],"meshes":[{"primitives":[{"mode":4,"material":0,"indices":0,"attributes":{"POSITION":1}},{"mode":4,"material":1,"indices":2,"attributes":{"POSITION":3}}],"name":"Mesh"}],"accessors":[{"bufferView":0,"byteOffset":0,"componentType":5123,"count":6432,"type":"SCALAR","max":[1791],"min":[0]},{"bufferView":1,"byteOffset":0,"componentType":5126,"count":1792,"type":"VEC3","max":[3931.805420,853.052673,785.251160],"min":[3917.073242,825.493652,770.519165]},{"bufferView":0,"byteOffset":12864,"componentType":5123,"count":174612,"type":"SCALAR","max":[59525],"min":[0]},{"bufferView":1,"byteOffset":21504,"componentType":5126,"count":59526,"type":"VEC3","max":[3987.800049,2235.303467,1092.337158],"min":[-0.000010,-0.000010,-12.700009]}],"materials":[{"name":"Mt0","pbrMetallicRoughness":{"metallicFactor":0.000000,"baseColorFactor":[0.600000,0.600000,0.600000,1.000000]}},{"name":"Mt1","pbrMetallicRoughness":{"metallicFactor":0.000000,"baseColorFactor":[0.500000,0.500000,0.500000,1.000000]}}],"bufferViews":[{"buffer":0,"byteOffset":0,"byteLength":362088},{"buffer":0,"byteOffset":362088,"byteLength":735816,"byteStride":12}],"buffers":[{"byteLength":1097904,"uri":"test_37.bin"}]}