{"asset":{"generator":"STP2GLTF","version":"2.0"},"scene":0,"scenes":[{"nodes":[0]}],"nodes":[{"children":[1]},{"mesh":0}],"meshes":[{"primitives":[{"mode":4,"material":0,"indices":0,"attributes":{"POSITION":1}}],"name":"Mesh"}],"accessors":[{"bufferView":0,"byteOffset":0,"componentType":5123,"count":6126,"type":"SCALAR","max":[2079],"min":[0]},{"bufferView":1,"byteOffset":0,"componentType":5126,"count":2080,"type":"VEC3","max":[874.125183,189.328476,-487.290497],"min":[637.120117,158.009003,-676.178589]}],"materials":[{"name":"Mt0","pbrMetallicRoughness":{"metallicFactor":0.000000,"baseColorFactor":[0.500000,0.500000,0.500000,1.000000]}}],"bufferViews":[{"buffer":0,"byteOffset":0,"byteLength":12252},{"buffer":0,"byteOffset":12252,"byteLength":24960,"byteStride":12}],"buffers":[{"byteLength":37212,"uri":"test_33.bin"}]}