{"asset":{"generator":"STP2GLTF","version":"2.0"},"scene":0,"scenes":[{"nodes":[0]}],"nodes":[{"children":[1]},{"mesh":0}],"meshes":[{"primitives":[{"mode":4,"material":0,"indices":0,"attributes":{"POSITION":1}}],"name":"Mesh"}],"accessors":[{"bufferView":0,"byteOffset":0,"componentType":5123,"count":636,"type":"SCALAR","max":[287],"min":[0]},{"bufferView":1,"byteOffset":0,"componentType":5126,"count":288,"type":"VEC3","max":[0.000010,300.000000,149.100021],"min":[-500.000000,-0.000010,-0.000010]}],"materials":[{"name":"Mt0","pbrMetallicRoughness":{"metallicFactor":0.000000,"baseColorFactor":[0.411765,0.415686,0.419608,1.000000]}}],"bufferViews":[{"buffer":0,"byteOffset":0,"byteLength":1272},{"buffer":0,"byteOffset":1272,"byteLength":3456,"byteStride":12}],"buffers":[{"byteLength":4728,"uri":"test_15.bin"}]}